REM DIRINDEX 1\2\3,1\2\4,1\2\5,1\2\6
REM DIRNAME folder01,folder02,folder03,folder04,folder05,folder06
TITLE ""
FILE "073 073.mp3" MP3
  TRACK 01 AUDIO
    TITLE "0:"
    INDEX 01 00:00:00
  TRACK 02 AUDIO
    TITLE "3:cjc157_2728"
    INDEX 01 00:00:11
  TRACK 03 AUDIO
    TITLE "0:"
    INDEX 01 00:01:32
  TRACK 04 AUDIO
    TITLE "4:cjc157_2729"
    INDEX 01 00:02:02
  TRACK 05 AUDIO
    TITLE "0:"
    INDEX 01 00:03:15
  TRACK 06 AUDIO
    TITLE "5:cjc157_2730"
    INDEX 01 00:03:63
  TRACK 07 AUDIO
    TITLE "0:"
    INDEX 01 00:05:38
  TRACK 08 AUDIO
    TITLE "3:cjc157_2731"
    INDEX 01 00:06:08
  TRACK 09 AUDIO
    TITLE "0:"
    INDEX 01 00:06:73
  TRACK 10 AUDIO
    TITLE "4:cjc157_2732"
    INDEX 01 00:07:45
  TRACK 11 AUDIO
    TITLE "0:"
    INDEX 01 00:08:46
  TRACK 12 AUDIO
    TITLE "5:cjc157_2733"
    INDEX 01 00:09:24
  TRACK 13 AUDIO
    TITLE "0:"
    INDEX 01 00:10:68
  TRACK 14 AUDIO
    TITLE "5:cjc157_2734"
    INDEX 01 00:11:39
  TRACK 15 AUDIO
    TITLE "0:"
    INDEX 01 00:13:43
  TRACK 16 AUDIO
    TITLE "3:cjc157_2735"
    INDEX 01 00:14:13
  TRACK 17 AUDIO
    TITLE "0:"
    INDEX 01 00:15:23
  TRACK 18 AUDIO
    TITLE "4:cjc157_2736"
    INDEX 01 00:15:68
  TRACK 19 AUDIO
    TITLE "0:"
    INDEX 01 00:17:04
  TRACK 20 AUDIO
    TITLE "5:cjc157_2737"
    INDEX 01 00:17:47
  TRACK 21 AUDIO
    TITLE "0:"
    INDEX 01 00:20:65
  TRACK 22 AUDIO
    TITLE "5:cjc157_2738"
    INDEX 01 00:21:43
  TRACK 23 AUDIO
    TITLE "0:"
    INDEX 01 00:23:24
  TRACK 24 AUDIO
    TITLE "3:cjc157_2739"
    INDEX 01 00:23:71
  TRACK 25 AUDIO
    TITLE "0:"
    INDEX 01 00:25:07
  TRACK 26 AUDIO
    TITLE "4:cjc157_2740"
    INDEX 01 00:25:54
  TRACK 27 AUDIO
    TITLE "0:"
    INDEX 01 00:26:69
  TRACK 28 AUDIO
    TITLE "5:cjc157_2741"
    INDEX 01 00:27:45
  TRACK 29 AUDIO
    TITLE "0:"
    INDEX 01 00:30:03
  TRACK 30 AUDIO
    TITLE "5:cjc157_2742"
    INDEX 01 00:30:54
  TRACK 31 AUDIO
    TITLE "0:"
    INDEX 01 00:33:42
  TRACK 32 AUDIO
    TITLE "5:cjc157_2743"
    INDEX 01 00:34:10
  TRACK 33 AUDIO
    TITLE "0:"
    INDEX 01 00:36:23
  TRACK 34 AUDIO
    TITLE "3:cjc157_2744"
    INDEX 01 00:36:70
  TRACK 35 AUDIO
    TITLE "0:"
    INDEX 01 00:37:63
  TRACK 36 AUDIO
    TITLE "4:cjc157_2745"
    INDEX 01 00:38:33
  TRACK 37 AUDIO
    TITLE "0:"
    INDEX 01 00:39:43
  TRACK 38 AUDIO
    TITLE "5:cjc157_2746"
    INDEX 01 00:40:21
  TRACK 39 AUDIO
    TITLE "0:"
    INDEX 01 00:42:19
  TRACK 40 AUDIO
    TITLE "5:cjc157_2747"
    INDEX 01 00:42:61
  TRACK 41 AUDIO
    TITLE "0:"
    INDEX 01 00:44:60
  TRACK 42 AUDIO
    TITLE "3:cjc157_2748"
    INDEX 01 00:45:32
  TRACK 43 AUDIO
    TITLE "0:"
    INDEX 01 00:46:35
  TRACK 44 AUDIO
    TITLE "4:cjc157_2749"
    INDEX 01 00:47:05
  TRACK 45 AUDIO
    TITLE "0:"
    INDEX 01 00:48:14
  TRACK 46 AUDIO
    TITLE "5:cjc157_2750"
    INDEX 01 00:48:57
  TRACK 47 AUDIO
    TITLE "0:"
    INDEX 01 00:51:11
  TRACK 48 AUDIO
    TITLE "5:cjc157_2751"
    INDEX 01 00:51:52
  TRACK 49 AUDIO
    TITLE "0:"
    INDEX 01 00:55:14
  TRACK 50 AUDIO
    TITLE "3:cjc157_2752"
    INDEX 01 00:55:61
  TRACK 51 AUDIO
    TITLE "0:"
    INDEX 01 00:56:74
  TRACK 52 AUDIO
    TITLE "4:cjc157_2753"
    INDEX 01 00:57:48
  TRACK 53 AUDIO
    TITLE "0:"
    INDEX 01 00:58:54
  TRACK 54 AUDIO
    TITLE "5:cjc157_2754"
    INDEX 01 00:59:28
  TRACK 55 AUDIO
    TITLE "0:"
    INDEX 01 01:01:33
  TRACK 56 AUDIO
    TITLE "5:cjc157_2755"
    INDEX 01 01:02:03
  TRACK 57 AUDIO
    TITLE "0:"
    INDEX 01 01:04:23
  TRACK 58 AUDIO
    TITLE "3:cjc157_2756"
    INDEX 01 01:04:68
  TRACK 59 AUDIO
    TITLE "0:"
    INDEX 01 01:06:10
  TRACK 60 AUDIO
    TITLE "4:cjc157_2757"
    INDEX 01 01:06:57
  TRACK 61 AUDIO
    TITLE "0:"
    INDEX 01 01:07:74
  TRACK 62 AUDIO
    TITLE "5:cjc157_2758"
    INDEX 01 01:08:52
  TRACK 63 AUDIO
    TITLE "0:"
    INDEX 01 01:11:11
  TRACK 64 AUDIO
    TITLE "3:cjc157_2759"
    INDEX 01 01:11:60
  TRACK 65 AUDIO
    TITLE "0:"
    INDEX 01 01:12:64
  TRACK 66 AUDIO
    TITLE "4:cjc157_2760"
    INDEX 01 01:13:42
  TRACK 67 AUDIO
    TITLE "0:"
    INDEX 01 01:14:37
  TRACK 68 AUDIO
    TITLE "5:cjc157_2761"
    INDEX 01 01:15:17
  TRACK 69 AUDIO
    TITLE "0:"
    INDEX 01 01:17:57
  TRACK 70 AUDIO
    TITLE "5:cjc157_2762"
    INDEX 01 01:18:23
  TRACK 71 AUDIO
    TITLE "0:"
    INDEX 01 01:20:34
  TRACK 72 AUDIO
    TITLE "3:cjc157_2763"
    INDEX 01 01:21:06
  TRACK 73 AUDIO
    TITLE "0:"
    INDEX 01 01:22:01
  TRACK 74 AUDIO
    TITLE "4:cjc157_2764"
    INDEX 01 01:22:46
  TRACK 75 AUDIO
    TITLE "0:"
    INDEX 01 01:23:52
  TRACK 76 AUDIO
    TITLE "5:cjc157_2765"
    INDEX 01 01:24:22
  TRACK 77 AUDIO
    TITLE "0:"
    INDEX 01 01:26:03
  TRACK 78 AUDIO
    TITLE "5:cjc157_2766"
    INDEX 01 01:26:46
  TRACK 79 AUDIO
    TITLE "0:"
    INDEX 01 01:29:33
  TRACK 80 AUDIO
    TITLE "5:cjc157_2767"
    INDEX 01 01:30:07
  TRACK 81 AUDIO
    TITLE "0:"
    INDEX 01 01:31:34
